<svg xmlns="http://www.w3.org/2000/svg" width="1920" height="1080" viewBox="0 0 1920 1080" version="1.1"><path d="" stroke="none" fill="#084484" fill-rule="evenodd"/><path d="M 154 567.499 L 154 854.084 239.750 853.733 C 333.522 853.349, 328.283 853.659, 348.481 847.295 C 367.948 841.160, 390.541 827.740, 406.367 812.909 C 419.717 800.400, 422.628 796.922, 500.896 700 C 519.328 677.175, 548.803 640.725, 566.396 619 C 583.989 597.275, 600.268 576.800, 602.572 573.500 C 614.327 556.662, 621.453 534.998, 625.597 503.500 C 627.681 487.662, 628.546 443.539, 627.097 427 C 623.355 384.279, 610.560 352.545, 587.989 330.001 C 562.268 304.310, 527.024 290.743, 466.639 283.288 C 455.190 281.875, 434.243 281.618, 303.750 281.291 L 154 280.915 154 567.499 M 227 567.573 L 227 782.145 259.750 781.755 C 286.739 781.434, 293.555 781.065, 298.500 779.661 C 314.453 775.130, 327.382 765.142, 333.489 752.632 C 340.710 737.837, 340.368 742.447, 340.963 652 L 341.500 570.500 400 569.935 C 460.320 569.352, 470.073 568.749, 489 564.435 C 525.586 556.096, 544.264 538.762, 551.451 506.475 C 555.794 486.967, 557.148 460.736, 554.892 439.789 C 549.020 385.261, 519.805 360.635, 453.144 354.027 C 446.770 353.395, 401.300 353, 334.894 353 L 227 353 227 567.573 M 885.500 365.626 C 884.400 365.842, 881.025 366.514, 878 367.118 C 862.482 370.216, 848.923 380.408, 842.049 394.141 C 833.999 410.225, 834.500 398.624, 834.500 569 C 834.500 713.086, 834.590 720.843, 836.346 727.500 C 842.380 750.384, 856.689 764.544, 878.697 769.409 C 888.054 771.477, 909.342 771.521, 919.185 769.492 C 936.037 766.018, 949.421 756.108, 956.315 742 C 964.060 726.149, 963.500 739.712, 963.500 568 L 963.500 414.500 961.194 406.535 C 954.426 383.156, 939.428 370.033, 914.935 366.059 C 908.817 365.067, 889.765 364.786, 885.500 365.626 M 1574.500 366.083 C 1550.349 370.848, 1537.796 382.086, 1530.846 405.161 C 1528.733 412.174, 1528.618 414.533, 1528.246 458.250 L 1527.857 504 1554.429 504 L 1581 504 1581.006 466.750 C 1581.009 444.202, 1581.419 428.032, 1582.044 425.779 C 1582.613 423.733, 1584.060 421.371, 1585.261 420.529 C 1587.751 418.786, 1595.188 418.495, 1598.055 420.030 C 1602.681 422.505, 1603 424.952, 1603 458.009 C 1603 475.176, 1602.516 492.340, 1601.920 496.308 C 1598.226 520.912, 1590.722 537.916, 1567.297 574.767 C 1540.047 617.635, 1531.606 637.494, 1529.014 664.827 C 1528.457 670.697, 1528.001 696.087, 1528.001 721.250 L 1528 767 1592.516 767 L 1657.033 767 1656.766 740.250 L 1656.500 713.500 1619 713.240 L 1581.500 712.980 1582.104 689.740 C 1582.599 670.655, 1583.079 665.133, 1584.786 658.854 C 1589.179 642.698, 1597.994 625.329, 1616.534 596.301 C 1639.847 559.800, 1651.020 533.305, 1655.508 503.885 C 1656.849 495.096, 1657.065 486.499, 1656.764 453.885 C 1656.426 417.292, 1656.248 413.954, 1654.252 406.793 C 1648.259 385.293, 1636.414 373.285, 1615.500 367.510 C 1608.304 365.523, 1581.981 364.606, 1574.500 366.083 M 682 568 L 682 767 709 767 L 736 767 736 673 L 736 579 742.250 578.999 C 788.806 578.993, 810.827 562.693, 815.978 524.426 C 816.822 518.149, 817.061 501.550, 816.781 468.500 C 816.403 423.864, 816.272 421.098, 814.186 413.500 C 806.850 386.793, 790.952 373.698, 761.500 370.104 C 756.533 369.498, 736.705 369.004, 717.250 369.003 L 682 369 682 568 M 982.462 370.250 C 982.201 370.938, 982.102 460.375, 982.244 569 L 982.500 766.500 1009.250 766.766 L 1036 767.033 1036 678.516 L 1036 590 1039.820 590 L 1043.640 590 1044.872 599.250 C 1047.867 621.743, 1054.643 684.812, 1058.006 721.500 C 1059.923 742.411, 1061.975 765.473, 1061.988 766.250 C 1061.994 766.663, 1075.050 767, 1091 767 L 1120 767 1120 763.835 C 1120 760.647, 1114.915 720.595, 1108.405 672.500 C 1105.142 648.396, 1100.493 616.645, 1096.428 590.714 L 1094.738 579.929 1100.845 574.402 C 1108.794 567.209, 1113.364 558.139, 1115.548 545.220 C 1116.883 537.324, 1117.060 527.251, 1116.736 477.720 C 1116.371 422.036, 1116.262 419.177, 1114.236 412.090 C 1106.879 386.358, 1090.752 373.607, 1061.026 370.022 C 1048.198 368.475, 983.065 368.664, 982.462 370.250 M 1129.451 370.267 C 1129.184 370.964, 1129.085 383.002, 1129.232 397.017 L 1129.500 422.500 1148.750 422.772 L 1168 423.043 1168 595.022 L 1168 767 1195 767 L 1222 767 1222 595 L 1222 423 1241 423 L 1260 423 1260 396 L 1260 369 1194.969 369 C 1143.395 369, 1129.837 369.262, 1129.451 370.267 M 1285.546 370.250 C 1285.330 370.938, 1284.668 375.775, 1284.074 381 C 1283.046 390.045, 1276.337 445.710, 1272.021 481 C 1270.911 490.075, 1268.420 510.550, 1266.486 526.500 C 1264.551 542.450, 1262.083 562.700, 1261.001 571.500 C 1259.919 580.300, 1257.672 598.750, 1256.009 612.500 C 1250.593 657.269, 1247.106 686.040, 1244.009 711.500 C 1242.336 725.250, 1240.294 742.125, 1239.471 749 C 1238.649 755.875, 1237.767 762.737, 1237.513 764.250 L 1237.050 767 1262.980 767 L 1288.909 767 1289.452 763.750 C 1289.750 761.962, 1291.128 750.600, 1292.514 738.500 C 1293.900 726.400, 1295.287 715.263, 1295.597 713.750 L 1296.159 711 1314.560 711 C 1332.833 711, 1332.965 711.016, 1333.447 713.250 C 1333.864 715.183, 1339 764.219, 1339 766.265 C 1339 766.669, 1351.155 767, 1366.012 767 L 1393.024 767 1392.483 763.250 C 1392.046 760.217, 1382.118 673.467, 1375.517 615 C 1374.741 608.125, 1373.173 594.400, 1372.032 584.500 C 1370.892 574.600, 1369.297 560.650, 1368.488 553.500 C 1367.679 546.350, 1365.420 526.550, 1363.469 509.500 C 1357.150 454.295, 1353.146 418.995, 1350.484 395 C 1349.049 382.075, 1347.693 370.938, 1347.469 370.250 C 1347.156 369.286, 1340.067 369, 1316.500 369 C 1292.925 369, 1285.848 369.286, 1285.546 370.250 M 1401.667 369.667 C 1401.300 370.033, 1401 459.583, 1401 568.667 L 1401 767 1457.516 767 L 1514.033 767 1513.766 740.250 L 1513.500 713.500 1484.250 713.235 L 1455 712.970 1455 540.985 L 1455 369 1428.667 369 C 1414.183 369, 1402.033 369.300, 1401.667 369.667 M 1709.996 371.250 C 1709.468 372.488, 1705.171 386.775, 1700.447 403 C 1692.004 432.004, 1671.430 502.267, 1643.915 596.068 L 1629.962 643.637 1630.231 666.864 L 1630.500 690.091 1670.250 690.024 L 1710 689.957 1710 728.478 L 1710 767 1732.500 767 L 1755 767 1755 568 L 1755 369 1732.979 369 C 1711.093 369, 1710.951 369.014, 1709.996 371.250 M 342 460.527 L 342 514.226 373.250 513.740 C 401.605 513.299, 405.195 513.051, 412 511.063 C 436.563 503.886, 451 485.169, 451 460.500 C 451 440.028, 440.806 422.895, 423.640 414.516 C 410.495 408.099, 407.813 407.712, 373.250 407.248 L 342 406.829 342 460.527 M 892.360 420.460 C 891.214 421.263, 889.757 423.176, 889.124 424.710 C 888.270 426.780, 888.041 464.170, 888.236 569.670 L 888.500 711.839 890.910 714.404 C 895.751 719.557, 905.518 718.606, 908.767 712.667 C 910.382 709.715, 910.521 700.324, 910.809 574.500 C 910.979 500.250, 910.821 436.157, 910.457 432.071 C 909.892 425.728, 909.383 424.230, 906.975 421.821 C 904.655 419.501, 903.291 419, 899.299 419 C 896.630 419, 893.507 419.657, 892.360 420.460 M 736 474.381 L 736 526 744.599 526 C 755.153 526, 759.287 524.319, 762.050 518.902 C 763.888 515.299, 764 512.764, 763.998 474.790 C 763.997 438.408, 763.827 434.167, 762.248 431.071 C 759.187 425.067, 756.164 423.643, 745.488 423.176 L 736 422.761 736 474.381 M 1036 481.878 L 1036 541 1044.250 540.996 C 1053.392 540.992, 1057.400 539.371, 1060.696 534.343 C 1062.360 531.804, 1062.522 527.901, 1062.789 484.045 C 1063.043 442.207, 1062.884 435.991, 1061.461 432.263 C 1058.944 425.667, 1055.300 423.678, 1044.813 423.177 L 1036 422.755 1036 481.878 M 1708.279 530.362 C 1704.433 545.978, 1694.473 581.571, 1682.588 622.172 C 1680.064 630.791, 1678 638.329, 1678 638.922 C 1678 639.647, 1683.180 640, 1693.840 640 L 1709.680 640 1710.376 594.750 C 1710.759 569.862, 1711.526 541.458, 1712.082 531.629 C 1712.637 521.800, 1712.958 513.638, 1712.796 513.491 C 1712.633 513.345, 1710.600 520.937, 1708.279 530.362 M 1313.653 524.500 C 1311.946 550.018, 1304.395 631.292, 1301.412 656.250 L 1300.725 662 1313.862 662 C 1325.808 662, 1327 661.838, 1327 660.214 C 1327 659.232, 1325.216 638.869, 1323.035 614.964 C 1320.854 591.059, 1318.137 559.125, 1316.998 544 C 1315.858 528.875, 1314.805 515.825, 1314.657 515 C 1314.509 514.175, 1314.057 518.450, 1313.653 524.500 M 375.293 583.025 C 367.025 585.717, 360.189 592.266, 357.013 600.538 C 355.163 605.357, 354.630 609.137, 354.234 620.250 L 353.744 634 364.872 634 L 376 634 376.056 623.750 C 376.125 611.378, 377.349 607.350, 382 604.196 C 384.821 602.282, 386.427 601.908, 390.283 602.267 C 399.440 603.120, 402.561 608.874, 401.747 623.404 C 400.885 638.765, 395.261 649.537, 378.459 668 C 358.009 690.473, 354 699.682, 354 724.184 L 354 736 389 736 L 424 736 424 725.518 L 424 715.037 400.750 714.768 L 377.500 714.500 377.656 709.816 C 377.891 702.793, 382.609 694.995, 395.155 680.899 C 408.263 666.170, 415.242 656.690, 419.049 648.442 C 426.603 632.077, 427.727 612.535, 421.895 598.977 C 419.341 593.041, 412.925 586.736, 406.500 583.849 C 399.293 580.610, 383.952 580.205, 375.293 583.025 M 465.681 582.750 C 465.440 583.163, 455.514 606.511, 443.622 634.636 L 422 685.773 422 696.886 L 422 708 445.564 708 L 469.129 708 468.814 718.454 C 468.641 724.204, 468.797 728.592, 469.160 728.204 C 469.523 727.817, 477.074 718.500, 485.940 707.500 L 502.059 687.500 497.030 687.198 L 492 686.895 491.887 680.198 C 491.825 676.514, 491.856 652.913, 491.955 627.750 L 492.136 582 479.127 582 C 471.972 582, 465.921 582.337, 465.681 582.750 M 456.156 655.980 C 449.923 670.818, 444.582 683.883, 444.287 685.011 C 443.764 687.010, 444.072 687.056, 456.125 686.782 L 468.500 686.500 468.765 657.750 C 468.911 641.938, 468.684 629, 468.260 629 C 467.836 629, 462.389 641.141, 456.156 655.980" stroke="none" fill="#044484" fill-rule="evenodd"/></svg>